<svg width="96" height="97" viewBox="0 0 96 97" fill="none" xmlns="http://www.w3.org/2000/svg">
<g clip-path="url(#clip0)">
<path d="M55.407 60.0107C52.0972 56.7051 48.9393 53.554 47.9995 50C47.0596 53.554 43.9012 56.7051 40.592 60.0107C35.628 64.9676 30 70.5854 30 79.0112C30 88.9306 38.0743 97 47.9995 97C57.9262 97 65.9994 88.9311 66 79.0112C66 70.586 60.3724 64.9676 55.407 60.0107Z" fill="#A78BFA"/>
</g>
<g clip-path="url(#clip1)">
<path d="M40.593 36.9893C43.9028 40.2949 47.0607 43.4461 48.0005 47C48.9404 43.4461 52.0988 40.2949 55.408 36.9893C60.372 32.0324 66 26.4146 66 17.9888C66 8.06942 57.9257 2.11352e-06 48.0005 1.24583e-06C38.0738 3.78006e-07 30.0006 8.06887 30 17.9888C30 26.4141 35.6276 32.0324 40.593 36.9893Z" fill="#818CF8"/>
</g>
<g clip-path="url(#clip2)">
<path d="M36.9893 56.407C40.2949 53.0972 43.4461 49.9393 47 48.9995C43.4461 48.0596 40.2949 44.9012 36.9893 41.592C32.0324 36.628 26.4146 31 17.9888 31C8.06942 31 8.92847e-07 39.0743 4.59003e-07 48.9995C2.50902e-08 58.9262 8.06887 66.9994 17.9888 67C26.4141 67 32.0324 61.3724 36.9893 56.407Z" fill="#7C3AED"/>
</g>
<g clip-path="url(#clip3)">
<path d="M59.0107 41.593C55.7051 44.9028 52.5539 48.0607 49 49.0005C52.5539 49.9404 55.7051 53.0988 59.0107 56.408C63.9676 61.372 69.5854 67 78.0112 67C87.9306 67 96 58.9257 96 49.0005C96 39.0738 87.9311 31.0006 78.0112 31C69.5859 31 63.9676 36.6276 59.0107 41.593Z" fill="#6366F1"/>
</g>
<defs>
<clipPath id="clip0">
<rect width="36" height="47" fill="white" transform="translate(30 50)"/>
</clipPath>
<clipPath id="clip1">
<rect width="36" height="47" fill="white" transform="translate(66 47) rotate(-180)"/>
</clipPath>
<clipPath id="clip2">
<rect width="36" height="47" fill="white" transform="translate(47 31) rotate(90)"/>
</clipPath>
<clipPath id="clip3">
<rect width="36" height="47" fill="white" transform="translate(49 67) rotate(-90)"/>
</clipPath>
</defs>
</svg>
