<svg width="410" height="97" viewBox="0 0 410 97" fill="none" xmlns="http://www.w3.org/2000/svg">
<g clip-path="url(#clip0_8_3)">
<path d="M55.407 60.0107C52.0972 56.7051 48.9393 53.554 47.9995 50C47.0596 53.554 43.9012 56.7051 40.592 60.0107C35.628 64.9676 30 70.5854 30 79.0112C30 88.9306 38.0743 97 47.9995 97C57.9262 97 65.9994 88.9311 66 79.0112C66 70.586 60.3724 64.9676 55.407 60.0107Z" fill="white"/>
</g>
<g clip-path="url(#clip1_8_3)">
<path d="M40.593 36.9893C43.9028 40.2949 47.0607 43.4461 48.0005 47C48.9404 43.4461 52.0988 40.2949 55.408 36.9893C60.372 32.0324 66 26.4146 66 17.9888C66 8.06942 57.9257 2.11352e-06 48.0005 1.24583e-06C38.0738 3.78006e-07 30.0006 8.06887 30 17.9888C30 26.4141 35.6276 32.0324 40.593 36.9893Z" fill="white"/>
</g>
<g clip-path="url(#clip2_8_3)">
<path d="M36.9893 56.407C40.2949 53.0972 43.4461 49.9393 47 48.9995C43.4461 48.0596 40.2949 44.9012 36.9893 41.592C32.0324 36.628 26.4146 31 17.9888 31C8.06942 31 8.92847e-07 39.0743 4.59003e-07 48.9995C2.50902e-08 58.9262 8.06887 66.9994 17.9888 67C26.4141 67 32.0324 61.3724 36.9893 56.407Z" fill="white"/>
</g>
<g clip-path="url(#clip3_8_3)">
<path d="M59.0107 41.593C55.7051 44.9028 52.5539 48.0607 49 49.0005C52.5539 49.9404 55.7051 53.0988 59.0107 56.408C63.9676 61.372 69.5854 67 78.0112 67C87.9306 67 96 58.9257 96 49.0005C96 39.0738 87.9311 31.0006 78.0112 31C69.5859 31 63.9676 36.6276 59.0107 41.593Z" fill="white"/>
</g>
<path d="M118.77 72V26.5H142.755C145.745 26.5 148.388 27.15 150.685 28.45C153.025 29.7067 154.867 31.44 156.21 33.65C157.553 35.86 158.225 38.395 158.225 41.255C158.225 43.985 157.553 46.455 156.21 48.665C154.867 50.8317 153.025 52.5433 150.685 53.8C148.345 55.0567 145.702 55.685 142.755 55.685H129.95V72H118.77ZM129.95 46.455H141.455C143.102 46.455 144.423 45.9783 145.42 45.025C146.417 44.0717 146.915 42.8367 146.915 41.32C146.915 39.76 146.417 38.5033 145.42 37.55C144.423 36.5533 143.102 36.055 141.455 36.055H129.95V46.455ZM163.445 72V37.615H173.975V41.06C175.102 39.6733 176.424 38.6333 177.94 37.94C179.457 37.2033 181.147 36.835 183.01 36.835C184.874 36.8783 186.195 37.16 186.975 37.68V46.845C186.282 46.4983 185.502 46.2383 184.635 46.065C183.769 45.8917 182.88 45.805 181.97 45.805C180.324 45.805 178.785 46.195 177.355 46.975C175.969 47.7117 174.842 48.7733 173.975 50.16V72H163.445ZM207.645 72.65C204.135 72.65 200.971 71.87 198.155 70.31C195.338 68.7067 193.106 66.5617 191.46 63.875C189.813 61.1883 188.99 58.1767 188.99 54.84C188.99 51.5033 189.813 48.4917 191.46 45.805C193.106 43.075 195.338 40.93 198.155 39.37C200.971 37.7667 204.135 36.965 207.645 36.965C211.155 36.965 214.318 37.7667 217.135 39.37C219.951 40.93 222.183 43.075 223.83 45.805C225.476 48.4917 226.3 51.5033 226.3 54.84C226.3 58.1767 225.476 61.1883 223.83 63.875C222.183 66.5617 219.951 68.7067 217.135 70.31C214.318 71.87 211.155 72.65 207.645 72.65ZM207.645 63.55C209.248 63.55 210.678 63.16 211.935 62.38C213.191 61.6 214.188 60.56 214.925 59.26C215.661 57.9167 216.03 56.4433 216.03 54.84C216.03 53.1933 215.661 51.72 214.925 50.42C214.188 49.0767 213.17 48.015 211.87 47.235C210.613 46.455 209.205 46.065 207.645 46.065C206.085 46.065 204.655 46.455 203.355 47.235C202.098 48.015 201.101 49.0767 200.365 50.42C199.628 51.72 199.26 53.1933 199.26 54.84C199.26 56.4433 199.628 57.9167 200.365 59.26C201.101 60.56 202.098 61.6 203.355 62.38C204.655 63.16 206.085 63.55 207.645 63.55ZM231.238 85.26V37.615H241.638V40.15C244.368 38.1567 247.445 37.16 250.868 37.16C254.162 37.16 257.13 37.9617 259.773 39.565C262.417 41.125 264.518 43.2483 266.078 45.935C267.638 48.5783 268.418 51.5467 268.418 54.84C268.418 58.1333 267.617 61.1233 266.013 63.81C264.453 66.4533 262.308 68.555 259.578 70.115C256.892 71.675 253.88 72.455 250.543 72.455C248.94 72.455 247.402 72.26 245.928 71.87C244.455 71.48 243.068 70.9167 241.768 70.18V85.26H231.238ZM249.048 63.55C250.782 63.55 252.32 63.1817 253.663 62.445C255.007 61.665 256.068 60.625 256.848 59.325C257.672 57.9817 258.083 56.4867 258.083 54.84C258.083 53.1933 257.672 51.72 256.848 50.42C256.068 49.0767 254.985 48.0367 253.598 47.3C252.255 46.52 250.738 46.13 249.048 46.13C247.575 46.13 246.232 46.3683 245.018 46.845C243.805 47.2783 242.722 47.95 241.768 48.86V60.885C242.678 61.7083 243.762 62.3583 245.018 62.835C246.275 63.3117 247.618 63.55 249.048 63.55ZM290.547 72.65C287.037 72.65 283.852 71.87 280.992 70.31C278.175 68.7067 275.943 66.5617 274.297 63.875C272.65 61.1883 271.827 58.1767 271.827 54.84C271.827 51.5033 272.607 48.4917 274.167 45.805C275.77 43.1183 277.937 40.995 280.667 39.435C283.397 37.8317 286.43 37.03 289.767 37.03C293.147 37.03 296.137 37.8533 298.737 39.5C301.337 41.1033 303.373 43.3133 304.847 46.13C306.363 48.9467 307.122 52.175 307.122 55.815V58.415H282.617C283.093 59.4983 283.722 60.4517 284.502 61.275C285.325 62.0983 286.3 62.7483 287.427 63.225C288.553 63.6583 289.767 63.875 291.067 63.875C292.497 63.875 293.797 63.6583 294.967 63.225C296.137 62.7483 297.133 62.0983 297.957 61.275L304.912 67.45C302.745 69.27 300.513 70.5917 298.217 71.415C295.963 72.2383 293.407 72.65 290.547 72.65ZM282.422 51.07H296.787C296.44 49.9433 295.898 48.99 295.162 48.21C294.468 47.3867 293.645 46.7583 292.692 46.325C291.738 45.8483 290.698 45.61 289.572 45.61C288.402 45.61 287.34 45.8267 286.387 46.26C285.433 46.6933 284.61 47.3217 283.917 48.145C283.267 48.925 282.768 49.9 282.422 51.07ZM312.044 72V26.5L322.574 24.875V72H312.044ZM329.056 72V26.5L339.586 24.875V72H329.056ZM363.227 72.65C359.717 72.65 356.532 71.87 353.672 70.31C350.856 68.7067 348.624 66.5617 346.977 63.875C345.331 61.1883 344.507 58.1767 344.507 54.84C344.507 51.5033 345.287 48.4917 346.847 45.805C348.451 43.1183 350.617 40.995 353.347 39.435C356.077 37.8317 359.111 37.03 362.447 37.03C365.827 37.03 368.817 37.8533 371.417 39.5C374.017 41.1033 376.054 43.3133 377.527 46.13C379.044 48.9467 379.802 52.175 379.802 55.815V58.415H355.297C355.774 59.4983 356.402 60.4517 357.182 61.275C358.006 62.0983 358.981 62.7483 360.107 63.225C361.234 63.6583 362.447 63.875 363.747 63.875C365.177 63.875 366.477 63.6583 367.647 63.225C368.817 62.7483 369.814 62.0983 370.637 61.275L377.592 67.45C375.426 69.27 373.194 70.5917 370.897 71.415C368.644 72.2383 366.087 72.65 363.227 72.65ZM355.102 51.07H369.467C369.121 49.9433 368.579 48.99 367.842 48.21C367.149 47.3867 366.326 46.7583 365.372 46.325C364.419 45.8483 363.379 45.61 362.252 45.61C361.082 45.61 360.021 45.8267 359.067 46.26C358.114 46.6933 357.291 47.3217 356.597 48.145C355.947 48.925 355.449 49.9 355.102 51.07ZM384.725 72V37.615H395.255V41.06C396.381 39.6733 397.703 38.6333 399.22 37.94C400.736 37.2033 402.426 36.835 404.29 36.835C406.153 36.8783 407.475 37.16 408.255 37.68V46.845C407.561 46.4983 406.781 46.2383 405.915 46.065C405.048 45.8917 404.16 45.805 403.25 45.805C401.603 45.805 400.065 46.195 398.635 46.975C397.248 47.7117 396.121 48.7733 395.255 50.16V72H384.725Z" fill="white"/>
<defs>
<clipPath id="clip0_8_3">
<rect width="36" height="47" fill="white" transform="translate(30 50)"/>
</clipPath>
<clipPath id="clip1_8_3">
<rect width="36" height="47" fill="white" transform="translate(66 47) rotate(-180)"/>
</clipPath>
<clipPath id="clip2_8_3">
<rect width="36" height="47" fill="white" transform="translate(47 31) rotate(90)"/>
</clipPath>
<clipPath id="clip3_8_3">
<rect width="36" height="47" fill="white" transform="translate(49 67) rotate(-90)"/>
</clipPath>
</defs>
</svg>
